<?xml version="1.0" ?><svg width="128px" height="128px" viewBox="0 0 128 128" id="Layer_1" style="enable-background:new 0 0 128 128;" version="1.1" xml:space="preserve" xmlns="http://www.w3.org/2000/svg" xmlns:xlink="http://www.w3.org/1999/xlink"><g><path d="M37.9,58.8h28.4v41c-2-1.3-4.4-2-6.9-2c-7.1,0-12.9,5.7-13,12.8H35.3c-1,0-1.9,0.8-1.9,1.9c0,1,0.8,1.9,1.9,1.9h13.1h19.8   h8.9h25.6h7.4c1,0,1.9-0.8,1.9-1.9c0-1-0.8-1.9-1.9-1.9h-6.2c-2.3-4.1-6.6-6.7-11.3-6.7c-1.1,0-2.2,0.1-3.3,0.4   c-1.9-4-5.8-6.7-10.2-7.2V58.8h28.4c3.1,0,5.6-2.5,5.6-5.6V31.5c0-3.1-2.5-5.6-5.6-5.6H78.9v-5c0-1-0.8-1.9-1.9-1.9h-8.9   c-1,0-1.9,0.8-1.9,1.9v5H37.9c-3.1,0-5.6,2.5-5.6,5.6v21.7C32.3,56.2,34.8,58.8,37.9,58.8z M37.9,29.6h69.3c1,0,1.9,0.8,1.9,1.9   v21.7c0,1-0.8,1.9-1.9,1.9H37.9c-1,0-1.9-0.8-1.9-1.9V31.5C36.1,30.5,36.9,29.6,37.9,29.6z M75.2,22.7v3.2H70v-3.2H75.2z    M87.3,108.4c0.5,0.2,1,0.2,1.5,0c1.2-0.5,2.4-0.7,3.6-0.7c2.6,0,5,1.1,6.7,2.9h-24H70H50.1c0.1-5,4.2-9,9.2-9   c2.8,0,5.5,1.3,7.3,3.5c0.4,0.5,1,0.7,1.6,0.7c0.6,0,1.2-0.3,1.5-0.9c1.7-2.6,4.6-4.2,7.8-4.2c4.1,0,7.6,2.6,8.8,6.5   C86.4,107.7,86.8,108.1,87.3,108.4z M70,99.3V58.8h5.1v38.4C73.3,97.5,71.6,98.2,70,99.3z"/><path d="M61.9,45.1V44c0-1.4-0.5-2.5-1.6-2.9v0c1-0.5,1.4-1.3,1.4-2.7v-0.5c0-2.1-1-3.2-3.2-3.2h-3.3v13.7h3.4   C60.8,48.4,61.9,47.3,61.9,45.1z M57.4,36.6h1c0.8,0,1.1,0.4,1.1,1.4v0.8c0,1.1-0.5,1.4-1.3,1.4h-0.8V36.6z M57.4,42.2h1   c1,0,1.4,0.4,1.4,1.7v1.2c0,1-0.4,1.4-1.1,1.4h-1.2V42.2z"/><polygon points="69.1,48.4 69.1,46.4 65.3,46.4 65.3,42.4 68.3,42.4 68.3,40.5 65.3,40.5 65.3,36.6 69.1,36.6 69.1,34.7 63.2,34.7    63.2,48.4  "/><path d="M71.8,48.4l0.4-2.5h2.6l0.4,2.5h2.2l-2.2-13.7H72l-2.2,13.7H71.8z M73.5,37.1L73.5,37.1l1.1,6.9h-2.1L73.5,37.1z"/><path d="M81.4,48.5c2.1,0,3.2-1.3,3.2-3.4v-1.8h-2v2c0,1-0.4,1.3-1.1,1.3c-0.7,0-1.1-0.4-1.1-1.3v-7.4c0-1,0.4-1.4,1.1-1.4   c0.7,0,1.1,0.4,1.1,1.4v1.5h2V38c0-2.2-1.1-3.4-3.2-3.4c-2.1,0-3.2,1.3-3.2,3.4v7.1C78.2,47.3,79.3,48.5,81.4,48.5z"/><polygon points="88.1,42.5 90.5,42.5 90.5,48.4 92.7,48.4 92.7,34.7 90.5,34.7 90.5,40.6 88.1,40.6 88.1,34.7 85.9,34.7 85.9,48.4    88.1,48.4  "/></g></svg>