<?xml version="1.0" encoding="iso-8859-1"?>
<svg version="1.1" id="Capa_1" xmlns="http://www.w3.org/2000/svg" xmlns:xlink="http://www.w3.org/1999/xlink" x="0px" y="0px"
	 viewBox="0 0 97.187 97.187" style="enable-background:new 0 0 97.187 97.187;" xml:space="preserve">
<g>
	<rect x="20.184" y="47.611" width="42.947" height="6"/>
	<rect x="20.184" y="34.575" width="42.947" height="6"/>
	<path d="M83.444,69.827h-3.032v-3.032v-6h-4.84V23.392L54.645,0H19.128C12.851,0,7.744,5.107,7.744,11.384v61.828
		c0,6.277,5.107,11.384,11.384,11.384h33.925v3.559h6h3.033v3.032v6h6h6.326h6v-6v-3.032h3.032h6v-6v-6.327v-6h-5.999V69.827z
		 M56.302,10.853l9.561,10.685h-9.561V10.853z M53.052,69.827v6v2.769H19.128c-2.969,0-5.384-2.415-5.384-5.384V11.384
		C13.744,8.415,16.159,6,19.128,6h31.175v21.538h19.27v33.257h-1.486h-4.954v-0.146H20.184v6h41.901v0.146v3.032h-3.033H53.052z
		 M83.444,82.154h-9.032v9.032h-6.326v-9.032h-9.033v-6.327h9.033v-9.032h6.326v9.032h9.032
		C83.445,75.827,83.445,82.154,83.444,82.154z"/>
</g>
</svg>
