<?xml version="1.0" encoding="iso-8859-1"?>
<svg version="1.1" id="Capa_1" xmlns="http://www.w3.org/2000/svg" xmlns:xlink="http://www.w3.org/1999/xlink" x="0px" y="0px"
	 viewBox="0 0 61.46 61.46" style="enable-background:new 0 0 61.46 61.46;" xml:space="preserve">
	<path d="M60.921,15.399c-0.918-3.121-2.95-6.366-5.722-9.136C51.278,2.341,46.543,0,42.532,0c-2.255,0-4.188,0.741-5.588,2.142
		c-1.878,1.875-2.534,4.688-1.894,7.896l-4.498,4.497c-3.351-1.748-6.583-2.663-9.451-2.663c-2.797,0-5.171,0.896-6.867,2.59
		c-3.952,3.954-3.275,11.084,1.175,18.322L0.455,56.878c-0.735,1.184-0.558,2.718,0.428,3.703C1.462,61.16,2.23,61.46,3.005,61.46
		c0.544,0,1.093-0.147,1.581-0.451l24.125-14.974c3.958,2.413,7.97,3.788,11.407,3.788c2.804,0,5.184-0.897,6.883-2.597
		c3.486-3.488,3.415-9.611-0.073-16.316l4.495-4.495c0.8,0.161,1.577,0.243,2.324,0.243c0,0,0,0,0.001,0
		c2.25,0,4.177-0.739,5.572-2.135C61.423,22.42,62.006,19.094,60.921,15.399z M12.311,49.153l6.945-11.19
		c0.647,0.74,1.319,1.477,2.042,2.2c0.716,0.717,1.452,1.398,2.199,2.048L12.311,49.153z M55.077,20.281
		c-0.312,0.312-0.895,0.377-1.329,0.377c-0.649,0-1.429-0.148-2.255-0.43l-1.768-0.601l-10.33,10.331l1.242,2.018
		c3.283,5.335,3.552,9.577,2.12,11.01c-0.557,0.556-1.444,0.838-2.64,0.838c-4.056,0-9.777-3.103-14.576-7.903
		c-7.411-7.41-9.133-15.146-7.065-17.216c0.553-0.553,1.436-0.833,2.625-0.833c2.278,0,5.334,1.077,8.384,2.954l2.018,1.242
		l10.333-10.332l-0.602-1.767c-0.637-1.874-0.484-3.149-0.049-3.584C41.502,6.067,42.092,6,42.531,6c1.809,0,5.1,1.18,8.425,4.506
		c2.044,2.043,3.577,4.444,4.208,6.586C55.592,18.548,55.558,19.8,55.077,20.281z"/>
</svg>
