<?xml version="1.0" encoding="iso-8859-1"?>
<svg version="1.1" id="Layer_1" xmlns="http://www.w3.org/2000/svg" xmlns:xlink="http://www.w3.org/1999/xlink" x="0px" y="0px"
	 viewBox="0 0 364.751 364.751" style="enable-background:new 0 0 364.751 364.751;" xml:space="preserve">
<g>
	<path d="M277.513,45.872H243.68c-3.03-11.802-13.759-20.551-26.494-20.551h-11.635v-2.145C205.551,10.396,195.155,0,182.375,0
		C169.595,0,159.2,10.396,159.2,23.176v2.145h-11.635c-12.735,0-23.464,8.749-26.494,20.551H87.238
		c-23.163,0-42.007,18.845-42.007,42.008v234.864c0,23.163,18.844,42.007,42.007,42.007h190.275
		c23.163,0,42.007-18.844,42.007-42.007V87.879C319.52,64.716,300.676,45.872,277.513,45.872z M147.565,43.32H168.2
		c4.971,0,9-4.029,9-9V23.176c0-2.854,2.322-5.176,5.176-5.176c2.854,0,5.176,2.322,5.176,5.176V34.32c0,4.971,4.029,9,9,9h20.635
		c5.155,0,9.35,4.194,9.35,9.35v1.833h-88.32V52.67h-0.002C138.215,47.515,142.409,43.32,147.565,43.32z M87.238,63.872h32.996
		c0.195,4.798,4.135,8.631,8.981,8.631h106.32c4.846,0,8.787-3.833,8.981-8.631h32.996c10.923,0,20.159,7.336,23.057,17.337
		H64.181C67.079,71.207,76.315,63.872,87.238,63.872z M277.513,346.751H87.238c-11.674,0-21.423-8.377-23.565-19.435h237.405
		C298.937,338.374,289.187,346.751,277.513,346.751z M301.52,309.316H63.231V99.209H301.52V309.316z"/>
	<path d="M192.373,164.471h53.997c4.971,0,9-4.029,9-9c0-4.971-4.029-9-9-9h-53.997c-4.971,0-9,4.029-9,9
		C183.373,160.442,187.402,164.471,192.373,164.471z"/>
	<path d="M192.373,213.454h53.997c4.971,0,9-4.029,9-9s-4.03-9-9-9h-53.997c-4.971,0-9,4.029-9,9S187.402,213.454,192.373,213.454
		z"/>
	<path d="M192.373,262.437h53.997c4.971,0,9-4.029,9-9s-4.03-9-9-9h-53.997c-4.971,0-9,4.029-9,9
		C183.373,258.408,187.402,262.437,192.373,262.437z"/>
	<path d="M153,238.141l-18.346,11.818l-2.405-2.072c-3.766-3.245-9.449-2.822-12.692,0.945c-3.244,3.766-2.821,9.449,0.944,12.693
		l7.5,6.461c1.677,1.445,3.771,2.181,5.876,2.181c1.687,0,3.381-0.473,4.872-1.434l23.999-15.46
		c4.179-2.692,5.384-8.261,2.692-12.44C162.75,236.655,157.181,235.448,153,238.141z"/>
	<path d="M153,189.241l-18.346,11.818l-2.405-2.072c-3.766-3.245-9.449-2.822-12.692,0.945c-3.244,3.766-2.821,9.449,0.944,12.693
		l7.5,6.461c1.677,1.445,3.771,2.181,5.876,2.181c1.687,0,3.381-0.473,4.872-1.434l23.999-15.46
		c4.179-2.692,5.384-8.261,2.692-12.44C162.75,187.755,157.181,186.548,153,189.241z"/>
	<path d="M120.501,163.724l7.5,6.46c1.678,1.445,3.771,2.181,5.876,2.181c1.687,0,3.381-0.473,4.872-1.434l23.999-15.46
		c4.179-2.692,5.384-8.261,2.692-12.44c-2.69-4.177-8.259-5.384-12.44-2.691l-18.346,11.818l-2.405-2.072
		c-3.768-3.245-9.448-2.821-12.693,0.945C116.313,154.797,116.736,160.48,120.501,163.724z"/>
</g>
</svg>
